# xmcd CD database file
#
# Track frame offsets:
#	183
#	11125
#	23490
#	36563
#	46295
#	57055
#	70895
#	82190
#	92255
#	103978
#	115753
#
# Disc length: 1650 seconds
#
# Revision: 2
# Processed by: cddbd v1.5.2PL0 Copyright (c) Steve Scherf et al.
# Submitted via: CDex 1.51
#
DISCID=8a06700b
DTITLE=Various Artist - Country Collection, Volime 1
DYEAR=1900
DGENRE=Country
TTITLE0=Billie Jo Spears - I'm So Lonesome I Coud Cry
TTITLE1=Willie Nelson - I Can't Find The Time
TTITLE2=Johnny Paycheck - Talk About Me
TTITLE3=Ned Miller - From A Jack To A King
TTITLE4=Dolly Parton - Honky Tonk Angels
TTITLE5=Kenny Rogers - Shine On Ruby Mountain
TTITLE6=Faron Young - Country Girl
TTITLE7=Patsy Cline - Turn The Cards Slowly
TTITLE8=Kenny Rogers - Me And Bobby McGhee
TTITLE9=Roger Miller - Little Green Apples
TTITLE10=Roger Miller - Dear Heart
EXTD=
EXTT0=
EXTT1=
EXTT2=
EXTT3=
EXTT4=
EXTT5=
EXTT6=
EXTT7=
EXTT8=
EXTT9=
EXTT10=
PLAYORDER=
